<svg width="132" height="182" viewBox="0 0 132 182" fill="none" xmlns="http://www.w3.org/2000/svg">
  <path d="M96.5881 62.98C94.2512 61.9785 92.0813 60.5318 89.6888 59.6416C69.2132 51.9632 46.8459 70.0463 32.4351 82.8991C27.1493 87.6285 22.4199 93.0256 16.9116 97.3655L65.7635 3L96.5881 62.9243V62.98Z" fill="#47C4F3"/>
  <path d="M65.5409 74.887C72.4403 70.2132 81.4539 66.8748 89.9112 68.5996C94.585 69.5455 99.4813 72.1606 103.098 75.1652L114.671 97.5881L105.713 91.8572C90.4676 83.7894 80.5081 89.9098 72.1064 103.263C69.7139 107.047 68.2116 111.387 65.5409 114.948V74.887Z" fill="#47C4F3"/>
  <path d="M11.2362 158.18L2 132.753H4.67072L12.7385 154.953L20.862 132.753H23.5327L14.2964 158.18H11.2362Z" fill="currentColor"/>
  <path d="M26.5929 158.18V132.753H42.0608V135.312H29.1523V143.324H39.8352V145.884H29.1523V155.676H42.0608V158.236H26.5929V158.18Z" fill="currentColor"/>
  <path d="M46.0669 158.18V132.753H54.6911C56.0265 132.753 57.2505 133.086 58.3633 133.754C59.4761 134.422 60.3107 135.312 60.9784 136.425C61.6461 137.538 61.9243 138.817 61.9243 140.208C61.9243 141.599 61.6461 142.601 61.1453 143.602C60.6446 144.604 59.9213 145.439 59.0867 146.106C58.1964 146.774 57.1949 147.219 56.1377 147.442L62.3694 158.18H59.4205L53.3001 147.608H48.6263V158.18H46.0669ZM48.6263 145.105H54.4685C55.3588 145.105 56.1934 144.882 56.9167 144.437C57.64 143.992 58.2521 143.38 58.6972 142.657C59.1423 141.878 59.3649 141.043 59.3649 140.097C59.3649 139.151 59.1423 138.261 58.6972 137.538C58.2521 136.759 57.64 136.202 56.9167 135.757C56.1934 135.312 55.3588 135.089 54.4685 135.089H48.6263V145.16V145.105Z" fill="currentColor"/>
  <path d="M85.5157 132.753V135.312H76.7802V158.18H74.2208V135.312H65.541V132.753H85.5157Z" fill="currentColor"/>
  <path d="M89.1879 158.18V132.753H104.656V135.312H91.7474V143.324H102.43V145.884H91.7474V155.676H104.656V158.236H89.1879V158.18Z" fill="currentColor"/>
  <path d="M107.549 158.18L116.841 145.383L107.661 132.753H110.776L118.399 143.269L126.022 132.753H129.138L119.957 145.383L129.249 158.18H126.077L118.343 147.553L110.665 158.18H107.494H107.549Z" fill="currentColor"/>
  <path d="M93.8061 178.544V164.189H102.542V165.636H95.2527V170.143H101.317V171.589H95.2527V177.153H102.542V178.6H93.8061V178.544Z" fill="currentColor"/>
  <path d="M104.767 178.544V164.189H109.663C110.442 164.189 111.11 164.356 111.722 164.746C112.334 165.135 112.835 165.636 113.169 166.248C113.558 166.86 113.725 167.583 113.725 168.362C113.725 169.141 113.558 169.698 113.28 170.254C113.002 170.81 112.612 171.311 112.112 171.701C111.611 172.09 111.054 172.313 110.442 172.424L113.948 178.489H112.278L108.829 172.535H106.214V178.489H104.767V178.544ZM106.214 171.144H109.552C110.053 171.144 110.498 171.033 110.943 170.755C111.388 170.532 111.722 170.143 111.945 169.753C112.167 169.308 112.334 168.863 112.334 168.307C112.334 167.75 112.223 167.305 111.945 166.86C111.722 166.415 111.333 166.081 110.943 165.858C110.498 165.636 110.053 165.469 109.552 165.469H106.214V171.144Z" fill="currentColor"/>
  <path d="M121.014 164.189H122.795L128.025 178.544H126.522L125.41 175.484H118.455L117.342 178.544H115.84L121.07 164.189H121.014ZM118.955 174.038H124.853L121.904 165.97L118.955 174.038Z" fill="currentColor"/>
</svg>

