<svg width="16" height="16" viewBox="0 0 16 16" fill="none" xmlns="http://www.w3.org/2000/svg">
<g clip-path="url(#clip0_5_79)">
<path d="M7.34472 1.87599C7.37328 1.72306 7.45443 1.58493 7.57412 1.48553C7.6938 1.38614 7.84447 1.33173 8.00005 1.33173C8.15563 1.33173 8.3063 1.38614 8.42599 1.48553C8.54567 1.58493 8.62682 1.72306 8.65538 1.87599L9.35605 5.58132C9.40581 5.84475 9.53383 6.08707 9.7234 6.27664C9.91297 6.46621 10.1553 6.59423 10.4187 6.64399L14.1241 7.34466C14.277 7.37322 14.4151 7.45437 14.5145 7.57405C14.6139 7.69374 14.6683 7.84441 14.6683 7.99999C14.6683 8.15557 14.6139 8.30624 14.5145 8.42592C14.4151 8.54561 14.277 8.62676 14.1241 8.65532L10.4187 9.35599C10.1553 9.40575 9.91297 9.53377 9.7234 9.72334C9.53383 9.91291 9.40581 10.1552 9.35605 10.4187L8.65538 14.124C8.62682 14.2769 8.54567 14.415 8.42599 14.5144C8.3063 14.6138 8.15563 14.6683 8.00005 14.6683C7.84447 14.6683 7.6938 14.6138 7.57412 14.5144C7.45443 14.415 7.37328 14.2769 7.34472 14.124L6.64405 10.4187C6.59429 10.1552 6.46627 9.91291 6.2767 9.72334C6.08713 9.53377 5.84482 9.40575 5.58138 9.35599L1.87605 8.65532C1.72312 8.62676 1.58499 8.54561 1.4856 8.42592C1.3862 8.30624 1.33179 8.15557 1.33179 7.99999C1.33179 7.84441 1.3862 7.69374 1.4856 7.57405C1.58499 7.45437 1.72312 7.37322 1.87605 7.34466L5.58138 6.64399C5.84482 6.59423 6.08713 6.46621 6.2767 6.27664C6.46627 6.08707 6.59429 5.84475 6.64405 5.58132L7.34472 1.87599Z" stroke="#42C0F0" stroke-width="1.33333" stroke-linecap="round" stroke-linejoin="round"/>
<path d="M13.3334 1.33331V3.99998" stroke="#42C0F0" stroke-width="1.33333" stroke-linecap="round" stroke-linejoin="round"/>
<path d="M14.6667 2.66669H12" stroke="#42C0F0" stroke-width="1.33333" stroke-linecap="round" stroke-linejoin="round"/>
<path d="M2.66671 14.6667C3.40309 14.6667 4.00004 14.0697 4.00004 13.3333C4.00004 12.597 3.40309 12 2.66671 12C1.93033 12 1.33337 12.597 1.33337 13.3333C1.33337 14.0697 1.93033 14.6667 2.66671 14.6667Z" stroke="#42C0F0" stroke-width="1.33333" stroke-linecap="round" stroke-linejoin="round"/>
</g>
<defs>
<clipPath id="clip0_5_79">
<rect width="16" height="16" fill="white"/>
</clipPath>
</defs>
</svg>
